<svg width="48" height="48" viewBox="0 0 48 48" fill="none" xmlns="http://www.w3.org/2000/svg">
<path d="M12 6H6C3.79 6 2 7.79 2 10C2 12.21 3.79 14 6 14" stroke="#797989" stroke-width="2" stroke-linecap="round" stroke-linejoin="round"/>
<path d="M12 14V2H40V14" stroke="#797989" stroke-width="2" stroke-linecap="round" stroke-linejoin="round"/>
<path d="M46 14H6C3.79 14 2 12.21 2 10V40C2 43.314 4.686 46 8 46H46V14Z" stroke="#797989" stroke-width="2" stroke-linecap="round" stroke-linejoin="round"/>
<path d="M34 34C36.2091 34 38 32.2091 38 30C38 27.7909 36.2091 26 34 26C31.7909 26 30 27.7909 30 30C30 32.2091 31.7909 34 34 34Z" stroke="#797989" stroke-width="2" stroke-linecap="round" stroke-linejoin="round"/>
</svg>
